<mxfile host="app.diagrams.net" modified="2022-02-24T04:07:23.064Z" agent="5.0 (Windows NT 10.0; Win64; x64) AppleWebKit/537.36 (KHTML, like Gecko) Chrome/98.0.4758.102 Safari/537.36" etag="aYmJH5KVNBwCmDJyngNX" version="16.6.3" type="github">
  <diagram id="jnD_gSt5hvzfcJ09THhr" name="Page-1">
    <mxGraphModel dx="782" dy="752" grid="1" gridSize="10" guides="1" tooltips="1" connect="1" arrows="1" fold="1" page="1" pageScale="1" pageWidth="850" pageHeight="1100" math="0" shadow="0">
      <root>
        <mxCell id="0" />
        <mxCell id="1" parent="0" />
        <mxCell id="G0bDkmeeft4scStbxqP6-1" value="Aluno" style="rounded=0;whiteSpace=wrap;html=1;" vertex="1" parent="1">
          <mxGeometry x="80" y="230" width="160" height="80" as="geometry" />
        </mxCell>
        <mxCell id="G0bDkmeeft4scStbxqP6-2" value="Pacote" style="rounded=0;whiteSpace=wrap;html=1;" vertex="1" parent="1">
          <mxGeometry x="570" y="290" width="160" height="80" as="geometry" />
        </mxCell>
        <mxCell id="G0bDkmeeft4scStbxqP6-3" value="Pagamento" style="rounded=0;whiteSpace=wrap;html=1;" vertex="1" parent="1">
          <mxGeometry x="60" y="630" width="160" height="80" as="geometry" />
        </mxCell>
        <mxCell id="G0bDkmeeft4scStbxqP6-4" value="Curso" style="rounded=0;whiteSpace=wrap;html=1;" vertex="1" parent="1">
          <mxGeometry x="520" y="630" width="165" height="80" as="geometry" />
        </mxCell>
        <mxCell id="G0bDkmeeft4scStbxqP6-5" value="&lt;u&gt;cod_aluno&lt;/u&gt;" style="ellipse;whiteSpace=wrap;html=1;strokeColor=#000000;" vertex="1" parent="1">
          <mxGeometry x="60" y="140" width="70" height="30" as="geometry" />
        </mxCell>
      </root>
    </mxGraphModel>
  </diagram>
</mxfile>
